<svg xmlns="http://www.w3.org/2000/svg" xmlns:xlink="http://www.w3.org/1999/xlink" width="500" zoomAndPan="magnify" viewBox="0 0 375 374.999991" height="500" preserveAspectRatio="xMidYMid meet" version="1.0"><defs><g/><clipPath id="4148b577d4"><path d="M 37.96875 37.5 L 333.46875 37.5 L 333.46875 333 L 37.96875 333 Z M 37.96875 37.5 " clip-rule="nonzero"/></clipPath></defs><g clip-path="url(#4148b577d4)"><path fill="#ff914d" d="M 185.667969 332.894531 C 104.066406 332.894531 37.96875 266.339844 37.96875 185.195312 C 37.96875 104.054688 104.066406 37.5 185.667969 37.5 C 267.265625 37.5 333.363281 103.597656 333.363281 185.195312 C 333.363281 266.796875 266.808594 332.894531 185.667969 332.894531 Z M 185.667969 46.617188 C 109.082031 46.617188 47.085938 108.613281 47.085938 185.195312 C 47.085938 261.78125 109.082031 323.777344 185.667969 323.777344 C 262.25 323.777344 324.246094 261.78125 324.246094 185.195312 C 324.246094 108.613281 261.792969 46.617188 185.667969 46.617188 Z M 185.667969 46.617188 " fill-opacity="1" fill-rule="nonzero"/></g><path stroke-linecap="butt" transform="matrix(0.75, 0, 0, 0.75, 2.002548, 38.036577)" fill="none" stroke-linejoin="miter" d="M 120.720569 215.274161 C 122.236195 214.289786 123.75182 212.362703 125.272653 209.492911 C 126.788278 206.659578 128.121612 203.607494 129.272653 200.321035 C 130.460153 197.039785 131.402862 194.393952 132.100779 192.383535 C 136.944529 179.956451 141.335154 167.649158 145.272654 155.461658 C 149.251821 143.279365 153.762238 130.789781 158.809114 117.987697 C 159.63203 115.815822 161.085155 112.242905 163.178906 107.279363 C 165.309114 102.315821 167.793489 96.696029 170.621614 90.419987 C 173.496615 84.102278 176.652865 77.722069 180.100782 71.284569 C 183.548699 64.800193 187.07474 58.789776 190.684116 53.253317 C 194.293491 47.716859 197.824741 43.222067 201.26745 39.779358 C 204.715367 36.331441 207.871617 34.607483 210.746617 34.607483 C 214.600784 34.607483 217.454951 36.4929 219.298701 40.268942 C 221.142451 44.044984 222.189326 48.779359 222.439326 54.482484 C 222.684118 60.18561 222.559118 66.112693 222.069534 72.268944 C 221.574743 78.378319 220.980993 83.836653 220.283076 88.638736 C 219.626826 93.435612 219.132034 96.675195 218.803909 98.357487 L 203.178908 202.477286 C 200.470575 221.102287 198.397658 239.31583 196.960158 257.123123 C 195.564324 274.966874 193.845574 292.956458 191.793491 311.086668 C 191.465366 315.602293 191.298699 320.545002 191.298699 325.920002 C 191.298699 331.331461 191.298699 336.378336 191.298699 341.05542 C 191.298699 343.268962 190.908074 344.909587 190.132032 345.977295 C 189.392449 347.08667 188.611199 347.638753 187.793491 347.638753 C 186.767449 347.638753 185.783074 347.045003 184.840365 345.857503 C 183.934115 344.664795 183.402865 343.065836 183.241407 341.05542 C 183.07474 338.883545 182.991407 337.237711 182.991407 336.133544 C 182.991407 335.065836 182.908074 333.774169 182.746615 332.253336 L 190.314324 219.831453 C 191.668491 209.248119 192.876824 199.46166 193.944533 190.477285 C 195.053908 181.492909 196.220574 172.4252 197.454949 163.279366 C 198.725783 154.091866 200.283075 143.956448 202.132033 132.878323 C 202.663283 130.008531 203.4237 125.555406 204.408075 119.529363 C 205.434117 113.456446 206.51745 106.643946 207.668492 99.09707 C 208.855992 91.550195 209.902867 83.998111 210.809117 76.451236 C 211.751825 68.862693 212.262242 62.133526 212.345575 56.268943 C 212.428909 50.362692 211.89245 46.154359 210.746617 43.654359 C 207.543492 45.33665 204.5487 47.982484 201.762241 51.591859 C 199.012241 55.201234 196.715366 58.690818 194.871616 62.055401 C 191.507032 67.59186 188.590366 72.680402 186.132032 77.315819 C 183.710157 81.909569 181.392448 86.56582 179.178907 91.28457 C 177.001823 95.998112 174.585156 101.373112 171.918489 107.404363 C 167.689323 116.675197 164.324739 125.086656 161.824739 132.633531 C 159.31953 140.180407 156.387238 148.159574 153.022655 156.571033 C 152.16328 158.748116 150.934113 162.477283 149.335155 167.76895 C 147.730988 173.060617 145.845571 178.951242 143.673696 185.430409 C 141.496612 191.914785 139.137237 198.14916 136.59557 204.138744 C 134.090362 210.086661 131.486195 215.02937 128.777862 218.96687 C 126.111195 222.909579 123.423695 224.878329 120.720569 224.878329 C 118.053903 224.878329 115.960152 223.399162 114.444527 220.446037 C 112.923694 217.534578 111.855986 213.883536 111.241402 209.492911 C 110.668485 205.143952 110.382027 200.794994 110.382027 196.446035 C 110.382027 192.05541 110.460152 188.508535 110.626819 185.800201 L 114.444527 135.404365 C 114.444527 134.378323 114.361194 133.248114 114.194527 132.018948 C 114.033069 130.748114 113.949736 129.190822 113.949736 127.341864 C 112.434111 127.669989 111.486194 128.102281 111.12161 128.633531 C 110.788277 129.128322 110.21536 129.946031 109.397652 131.097073 C 105.866402 135.815823 102.543485 141.57624 99.428901 148.38874 C 96.30911 155.196032 93.397651 162.435616 90.689317 170.107492 C 88.022651 177.737701 85.684109 185.164784 83.673692 192.383535 C 81.663275 199.607494 79.980983 205.904369 78.626817 211.27937 C 76.6164 219.15437 74.64765 227.175204 72.720566 235.336663 C 70.793483 243.50333 68.741399 251.274164 66.569524 258.659581 C 65.215357 264.362706 63.611191 269.982498 61.767441 275.518957 C 59.92369 281.097082 57.809107 286.659583 55.428898 292.196041 C 54.283065 294.206458 53.152857 295.784583 52.043482 296.935625 C 50.975773 298.123125 49.17369 298.716875 46.632023 298.716875 C 43.757023 298.716875 41.319523 296.565833 39.309106 292.258541 C 37.298689 287.992916 35.694522 282.492916 34.507022 275.763749 C 33.35598 269.081457 32.475772 262.065831 31.861189 254.722081 C 31.288272 247.419997 30.91848 240.607496 30.751814 234.289788 C 30.590355 228.013746 30.507022 223.274162 30.507022 220.076245 L 33.027855 169.185617 C 33.850772 161.26895 34.772647 153.414782 35.798689 145.617907 C 36.824731 137.784573 37.913272 130.008531 39.059106 122.294989 C 39.225772 121.435614 39.637231 118.873113 40.293481 114.60228 C 40.991398 110.336655 41.975773 105.086654 43.246606 98.852279 C 44.517439 92.617903 45.89244 86.112695 47.366398 79.341861 C 48.887231 72.534569 50.48619 66.15436 52.168482 60.206443 C 53.850773 54.216859 55.574732 49.378317 57.335149 45.685609 C 59.100774 41.9929 60.824732 40.143942 62.507024 40.143942 C 64.845566 40.143942 66.137233 40.987692 66.382024 42.669983 C 66.668483 44.352275 66.465358 46.321025 65.767441 48.576234 C 65.111191 50.831442 64.538274 52.800192 64.043482 54.482484 C 61.335149 64.081443 59.14244 72.800194 57.460149 80.638736 C 55.777857 88.430403 54.220565 96.326237 52.783065 104.326237 C 51.387232 112.284571 49.934106 121.393947 48.413273 131.649156 C 47.059106 140.878323 45.788273 151.628324 44.600773 163.89395 C 43.449731 176.159576 42.486189 189.060618 41.704939 202.602286 C 40.970564 216.097078 40.762231 229.227287 41.090356 241.982497 C 41.418481 254.784581 42.423689 266.310623 44.105981 276.565832 L 46.632023 288.873125 C 47.980981 288.545 48.824731 287.992916 49.152856 287.211666 C 49.480981 286.472083 49.991398 285.446041 50.689315 284.133541 L 56.720565 265.982498 C 60.57994 252.196039 64.350774 237.899163 68.043483 223.09187 C 71.736191 208.321036 75.798691 193.841868 80.225775 179.649159 C 84.699734 165.451242 89.887234 152.305407 95.798693 140.20124 C 97.480985 137.003323 99.449735 133.352281 101.704943 129.248114 C 103.960152 125.107489 106.444527 122.19603 109.147652 120.513739 C 110.668485 119.529363 112.350777 119.034572 114.194527 119.034572 C 117.027861 119.034572 118.954944 120.206447 119.980986 122.544989 C 121.335153 124.878322 122.090361 129.169989 122.257028 135.404365 C 122.418486 141.63874 122.236195 148.612699 121.704945 156.326241 C 121.210153 164.039783 120.720569 171.524159 120.225778 178.784576 C 119.736194 186.008535 119.486194 191.789785 119.486194 196.138744 C 119.486194 201.185619 119.694528 204.977286 120.100778 207.524161 C 120.512236 210.024161 120.720569 212.607495 120.720569 215.274161 Z M 220.798701 183.524159 C 220.798701 179.998117 221.642451 175.628326 223.324743 170.414783 C 225.007035 165.20645 227.345576 160.039783 230.340368 154.909574 C 233.371619 149.784574 236.861202 145.555407 240.798702 142.23249 C 244.777869 138.867906 248.944536 137.185615 253.293495 137.185615 C 257.350787 137.185615 260.632037 138.35749 263.137245 140.696032 C 265.678912 143.034573 267.199746 145.435615 267.689329 147.893949 C 268.184121 150.315824 267.340371 151.524157 265.168496 151.524157 C 263.486204 151.524157 261.762245 150.560616 259.99662 148.633532 C 258.236203 146.706449 256.18412 145.742907 253.845578 145.742907 C 251.99662 145.742907 249.762245 146.82624 247.137244 149.003324 C 244.553911 151.175199 241.392452 155.461658 237.663285 161.8627 C 235.980994 164.571033 234.418494 168.060617 232.986202 172.326242 C 231.590368 176.591867 230.892452 180.836659 230.892452 185.060618 C 231.220577 184.732493 231.345577 184.612701 231.262243 184.690826 C 231.17891 184.774159 231.465368 184.466868 232.121618 183.768951 L 234.152869 180.753326 C 235.507035 178.742909 237.064327 176.138742 238.829952 172.940825 C 240.595577 169.7377 242.397661 166.51895 244.246619 163.279366 C 246.090369 159.998116 247.772661 157.227283 249.293495 154.972074 C 250.80912 152.675199 251.975786 151.524157 252.798703 151.524157 C 255.835162 151.524157 257.600787 152.633532 258.09037 154.847074 C 258.585162 157.024158 258.788287 159.711658 258.704953 162.909575 C 258.62162 166.071033 258.93412 169.248117 259.626829 172.446034 C 260.611204 177.003326 262.15287 180.326242 264.246621 182.414784 C 266.376829 184.508534 268.777871 185.555409 271.444538 185.555409 C 276.163288 185.555409 281.371622 182.701243 287.074747 177.003326 C 289.454956 174.826242 291.137247 173.024159 292.121622 171.586659 C 293.147664 170.149158 294.501831 168.508533 296.178914 166.664783 C 297.329956 164.982491 298.829956 164.138741 300.673706 164.138741 C 302.517456 164.138741 303.31954 165.701242 303.074748 168.815825 C 302.824748 171.89395 299.522665 176.550201 293.168497 182.784576 L 285.59558 188.815826 C 280.715372 192.18041 275.996621 193.862702 271.444538 193.862702 C 267.257037 193.862702 263.605995 192.612702 260.491412 190.107493 C 257.37162 187.565826 254.970578 184.446034 253.293495 180.753326 C 251.611203 177.060617 250.767453 173.451242 250.767453 169.9252 C 249.62162 170.784575 248.288286 172.654367 246.767453 175.524159 C 245.251828 178.357492 243.611203 181.409576 241.845577 184.690826 C 240.079952 187.977285 238.277869 190.826243 236.42891 193.248118 C 234.58516 195.664785 232.736202 196.878327 230.892452 196.878327 C 226.173701 196.878327 223.30391 195.789785 222.277868 193.61791 C 221.293493 191.440827 220.798701 188.076243 220.798701 183.524159 Z M 292.355997 188.076243 L 293.892456 159.586658 C 294.059122 157.742908 294.220581 155.524158 294.387248 152.940824 C 294.548706 150.315824 294.715373 148.081449 294.876831 146.23249 C 295.246623 137.82624 296.314331 129.518947 298.079956 121.310614 C 299.840373 113.065821 301.730998 104.904363 303.741415 96.821029 C 304.887248 93.456445 305.78829 91.242903 306.44454 90.175195 C 307.142457 89.06582 308.090373 88.513736 309.277873 88.513736 C 309.767457 88.513736 310.345582 88.555403 311.001832 88.638736 C 311.699749 88.716861 312.454957 88.841861 313.277874 89.00332 C 314.137249 92.904362 313.97579 97.498112 312.783082 102.789779 C 311.637249 108.081446 310.715374 112.904363 310.017457 117.248113 C 308.168498 128.857489 306.652873 141.63874 305.460165 155.586658 C 304.314331 169.534575 303.741415 182.805409 303.741415 195.39916 L 304.47579 223.643954 L 306.50704 218.847078 C 308.845582 212.117911 310.814332 206.456453 312.418499 201.862702 C 314.017457 197.227285 315.861207 192.633535 317.954957 188.076243 C 320.048708 183.524159 322.855999 177.987701 326.382041 171.461659 C 328.231 168.097075 330.038292 165.248116 331.798708 162.909575 C 333.564333 160.529366 336.314334 159.341866 340.043501 159.341866 C 341.892459 159.341866 343.184126 160.696033 343.923709 163.404366 C 344.663292 166.071033 345.111209 169.003325 345.277876 172.201242 C 345.481001 175.399159 345.585168 177.758534 345.585168 179.279367 C 345.585168 183.956451 345.704959 187.935618 345.954959 191.216868 C 346.199751 194.498118 347.163293 197.737702 348.845584 200.940827 C 352.699751 200.076244 355.960168 197.597077 358.626835 193.49291 C 361.335169 189.388743 363.777877 185.821035 365.949752 182.784576 C 367.142461 180.940826 368.231002 179.091867 369.215377 177.248117 C 370.241419 175.399159 371.262253 173.472075 372.288294 171.461659 C 373.809128 168.753325 375.017461 166.909575 375.918503 165.9252 C 376.86642 164.899158 377.829961 164.388741 378.814336 164.388741 C 379.345586 164.388741 380.267461 164.5502 381.579962 164.878325 C 382.444545 167.914783 382.277878 170.357492 381.090378 172.201242 C 379.939336 174.0502 378.689336 176.222076 377.33517 178.722076 C 376.14767 180.940826 374.548711 183.768951 372.538294 187.216868 C 370.527878 190.664785 368.251836 194.02416 365.704961 197.310619 C 363.20496 200.550202 360.51746 203.315827 357.64246 205.617911 C 354.814335 207.873119 351.882043 208.998119 348.845584 208.998119 C 343.309126 208.998119 339.694542 204.034577 338.017459 194.107493 C 337.522667 191.279368 337.173709 187.46166 336.970584 182.664784 C 336.803917 177.862701 336.720584 173.701242 336.720584 170.169992 C 335.57475 171.034575 334.158083 172.982492 332.475792 176.018951 C 330.7935 179.013742 329.111208 182.393951 327.428916 186.169993 C 325.746625 189.946035 324.189333 193.61791 322.751833 197.185619 C 321.319541 200.71166 320.189333 203.399161 319.371624 205.248119 C 317.361207 210.456453 315.720582 215.643953 314.44454 220.815828 C 313.173707 226.024162 311.777874 230.987704 310.262249 235.706454 C 309.439332 238.414788 308.47579 240.138746 307.371623 240.873121 C 306.303915 241.654372 304.579957 242.044997 302.199748 242.044997 C 300.355998 242.044997 298.835164 240.446038 297.647664 237.242913 C 296.496623 234.044996 295.533081 230.044996 294.757039 225.242912 C 294.017456 220.446037 293.480997 215.482495 293.152872 210.352286 C 292.824747 205.268952 292.621622 200.669994 292.538289 196.571035 C 292.418497 192.425202 292.355997 189.597076 292.355997 188.076243 Z M 391.689337 209.982494 C 388.324754 209.982494 385.329962 208.899161 382.704962 206.722078 C 380.121628 204.550202 378.152878 202.294994 376.798711 199.956452 C 373.803919 194.21166 372.079961 187.440826 371.632044 179.649159 C 371.220586 171.810617 371.689336 164.716866 373.043503 158.357491 C 373.371628 156.508533 373.824753 154.294991 374.397669 151.711657 C 375.012253 149.086657 375.89767 146.768949 377.043503 144.758532 C 378.236211 142.706448 379.668503 141.680407 381.350795 141.680407 C 385.21017 141.680407 387.095587 142.992907 387.012254 145.617907 C 386.92892 148.20124 386.215379 152.242907 384.861212 157.742908 C 383.548712 163.196033 382.892462 170.190825 382.892462 178.722076 C 382.892462 181.268951 383.220587 184.305409 383.876837 187.831451 C 384.533087 191.357493 385.579962 194.477285 387.012254 197.185619 C 388.449754 199.852285 390.251837 201.185619 392.428921 201.185619 C 395.137254 201.185619 398.215379 200.013744 401.658088 197.675202 C 405.106005 195.300202 408.283088 192.654368 411.194547 189.737701 C 414.15288 186.784576 416.220589 184.550201 417.413297 183.029368 C 417.741422 182.701243 418.663297 181.576243 420.178922 179.649159 C 421.699756 177.716867 423.501839 175.544992 425.595589 173.123117 C 427.68934 170.664784 429.741423 168.508533 431.75184 166.664783 C 433.762257 164.815825 435.361215 163.89395 436.548715 163.89395 C 437.741424 163.89395 438.335174 164.899158 438.335174 166.909575 C 438.335174 168.097075 437.53309 169.904367 435.934132 172.326242 C 434.335173 174.742909 432.428923 177.310617 430.210173 180.018951 C 428.038298 182.685618 425.902881 185.206451 423.814339 187.58666 C 421.720589 189.925201 420.158089 191.607493 419.137256 192.633535 C 417.126839 194.643952 414.725797 197.039785 411.93413 199.831452 C 409.189338 202.581452 406.132047 204.961661 402.767463 206.966869 C 399.402879 208.977286 395.710171 209.982494 391.689337 209.982494 Z M 383.626837 109.925196 C 383.626837 107.097071 384.387253 104.633529 385.908087 102.544987 C 387.423712 100.409571 389.106004 99.341862 390.949754 99.341862 C 392.960171 99.341862 394.642462 100.612696 395.996629 103.159571 C 398.335171 107.836654 398.621629 111.487696 396.861213 114.112696 C 395.095587 116.69603 392.939337 117.987697 390.39767 117.987697 C 388.757045 117.987697 387.220587 117.331447 385.783087 116.018947 C 384.345587 114.66478 383.626837 112.63353 383.626837 109.925196 Z M 431.741423 208.013744 C 430.059131 208.013744 429.053923 206.966869 428.725798 204.878327 C 428.397673 202.742911 428.31434 200.508535 428.481006 198.169994 C 428.642465 195.831452 428.725798 194.393952 428.725798 193.862702 C 428.56434 190.86791 428.522673 187.810618 428.606006 184.690826 C 428.684131 181.576243 428.642465 178.414784 428.481006 175.216867 C 428.481006 174.029367 428.522673 171.810617 428.606006 168.571033 C 428.684131 165.289783 428.934131 161.8002 429.340381 158.107491 C 429.793506 154.378324 430.428923 151.175199 431.25184 148.508532 C 432.111215 145.805407 433.199757 144.45124 434.512257 144.45124 C 437.87684 144.45124 439.600799 145.555407 439.678924 147.774157 C 439.762257 149.946032 439.637257 152.794991 439.309132 156.326241 C 439.147674 157.513741 439.06434 158.826241 439.06434 160.263741 C 439.06434 161.659575 439.06434 163.034575 439.06434 164.388741 C 439.06434 166.071033 438.981007 167.1752 438.819549 167.711658 C 438.652882 168.201242 438.574757 169.289783 438.574757 170.972075 C 440.418507 169.617908 442.100799 168.060617 443.616424 166.294992 C 445.137257 164.529366 447.824758 163.649158 451.678925 163.649158 C 452.871633 163.649158 454.428925 163.607491 456.356008 163.524158 C 458.283092 163.440825 460.335175 163.404366 462.512259 163.404366 C 466.199759 163.404366 469.647676 163.607491 472.845593 164.01895 C 476.048718 164.4252 477.647676 165.472075 477.647676 167.154367 C 477.647676 168.836658 476.767468 169.946033 475.001843 170.477283 C 473.236218 170.972075 471.085176 171.216867 468.538301 171.216867 C 466.856009 171.216867 465.137259 171.1752 463.371634 171.091867 C 461.606008 171.013742 460.06955 170.972075 458.75705 170.972075 C 454.0383 170.972075 450.882049 171.216867 449.277883 171.711659 C 447.678924 172.201242 445.876841 174.128325 443.866424 177.492909 C 442.673716 179.669992 441.527882 182.029368 440.418507 184.571034 C 439.350799 187.071035 438.574757 189.841868 438.079965 192.878327 C 437.548715 195.050202 437.319549 197.326244 437.402882 199.706452 C 437.527882 202.044994 437.28309 204.013744 436.663299 205.617911 C 436.090382 207.216869 434.449757 208.013744 431.741423 208.013744 Z M 431.741423 208.013744 " stroke="#000000" stroke-width="18.904425" stroke-opacity="1" stroke-miterlimit="4"/><g fill="#ff914d" fill-opacity="1"><g transform="translate(22.990827, 194.786567)"><g><path d="M 69.5625 4.71875 C 70.695312 3.96875 71.832031 2.519531 72.96875 0.375 C 74.101562 -1.757812 75.109375 -4.054688 75.984375 -6.515625 C 76.867188 -8.972656 77.5625 -10.957031 78.0625 -12.46875 C 81.71875 -21.800781 85.023438 -31.035156 87.984375 -40.171875 C 90.953125 -49.304688 94.328125 -58.660156 98.109375 -68.234375 C 98.734375 -69.878906 99.832031 -72.554688 101.40625 -76.265625 C 102.988281 -79.984375 104.847656 -84.207031 106.984375 -88.9375 C 109.128906 -93.664062 111.492188 -98.453125 114.078125 -103.296875 C 116.660156 -108.148438 119.304688 -112.65625 122.015625 -116.8125 C 124.722656 -120.976562 127.367188 -124.351562 129.953125 -126.9375 C 132.535156 -129.519531 134.898438 -130.8125 137.046875 -130.8125 C 139.941406 -130.8125 142.082031 -129.390625 143.46875 -126.546875 C 144.851562 -123.710938 145.640625 -120.15625 145.828125 -115.875 C 146.023438 -111.59375 145.929688 -107.148438 145.546875 -102.546875 C 145.171875 -97.953125 144.726562 -93.859375 144.21875 -90.265625 C 143.71875 -86.671875 143.34375 -84.242188 143.09375 -82.984375 L 131.375 -4.921875 C 129.363281 9.066406 127.820312 22.738281 126.75 36.09375 C 125.675781 49.457031 124.382812 62.945312 122.875 76.5625 C 122.625 79.957031 122.5 83.671875 122.5 87.703125 C 122.5 91.742188 122.5 95.523438 122.5 99.046875 C 122.5 100.691406 122.210938 101.921875 121.640625 102.734375 C 121.078125 103.554688 120.476562 103.96875 119.84375 103.96875 C 119.09375 103.96875 118.367188 103.523438 117.671875 102.640625 C 116.972656 101.765625 116.5625 100.566406 116.4375 99.046875 C 116.3125 97.410156 116.25 96.179688 116.25 95.359375 C 116.25 94.546875 116.1875 93.570312 116.0625 92.4375 L 121.734375 8.125 C 122.742188 0.1875 123.65625 -7.148438 124.46875 -13.890625 C 125.289062 -20.628906 126.175781 -27.429688 127.125 -34.296875 C 128.070312 -41.171875 129.238281 -48.769531 130.625 -57.09375 C 131 -59.226562 131.5625 -62.5625 132.3125 -67.09375 C 133.070312 -71.632812 133.894531 -76.738281 134.78125 -82.40625 C 135.664062 -88.082031 136.453125 -93.753906 137.140625 -99.421875 C 137.835938 -105.097656 138.21875 -110.140625 138.28125 -114.546875 C 138.34375 -118.960938 137.929688 -122.113281 137.046875 -124 C 134.648438 -122.738281 132.410156 -120.753906 130.328125 -118.046875 C 128.253906 -115.335938 126.523438 -112.722656 125.140625 -110.203125 C 122.617188 -106.046875 120.441406 -102.234375 118.609375 -98.765625 C 116.785156 -95.304688 115.054688 -91.8125 113.421875 -88.28125 C 111.785156 -84.75 109.957031 -80.710938 107.9375 -76.171875 C 104.789062 -69.242188 102.269531 -62.941406 100.375 -57.265625 C 98.488281 -51.597656 96.285156 -45.613281 93.765625 -39.3125 C 93.128906 -37.675781 92.210938 -34.875 91.015625 -30.90625 C 89.816406 -26.9375 88.398438 -22.523438 86.765625 -17.671875 C 85.128906 -12.816406 83.363281 -8.148438 81.46875 -3.671875 C 79.582031 0.796875 77.628906 4.507812 75.609375 7.46875 C 73.597656 10.425781 71.582031 11.90625 69.5625 11.90625 C 67.539062 11.90625 65.960938 10.800781 64.828125 8.59375 C 63.703125 6.394531 62.914062 3.65625 62.46875 0.375 C 62.03125 -2.894531 61.8125 -6.164062 61.8125 -9.4375 C 61.8125 -12.71875 61.875 -15.367188 62 -17.390625 L 64.84375 -55.203125 C 64.84375 -55.953125 64.773438 -56.800781 64.640625 -57.75 C 64.515625 -58.695312 64.453125 -59.863281 64.453125 -61.25 C 63.328125 -61 62.632812 -60.679688 62.375 -60.296875 C 62.125 -59.921875 61.6875 -59.289062 61.0625 -58.40625 C 58.414062 -54.882812 55.925781 -50.570312 53.59375 -45.46875 C 51.257812 -40.363281 49.082031 -34.941406 47.0625 -29.203125 C 45.050781 -23.472656 43.285156 -17.894531 41.765625 -12.46875 C 40.253906 -7.050781 39 -2.328125 38 1.703125 C 36.488281 7.617188 35.003906 13.632812 33.546875 19.75 C 32.097656 25.863281 30.554688 31.691406 28.921875 37.234375 C 27.910156 41.523438 26.710938 45.75 25.328125 49.90625 C 23.941406 54.0625 22.367188 58.21875 20.609375 62.375 C 19.722656 63.894531 18.867188 65.09375 18.046875 65.96875 C 17.234375 66.851562 15.878906 67.296875 13.984375 67.296875 C 11.847656 67.296875 10.019531 65.6875 8.5 62.46875 C 6.988281 59.257812 5.789062 55.132812 4.90625 50.09375 C 4.03125 45.050781 3.367188 39.789062 2.921875 34.3125 C 2.484375 28.832031 2.203125 23.726562 2.078125 19 C 1.953125 14.269531 1.890625 10.707031 1.890625 8.3125 L 3.78125 -29.859375 C 4.40625 -35.785156 5.097656 -41.675781 5.859375 -47.53125 C 6.617188 -53.394531 7.4375 -59.226562 8.3125 -65.03125 C 8.4375 -65.65625 8.75 -67.570312 9.25 -70.78125 C 9.757812 -74 10.488281 -77.9375 11.4375 -82.59375 C 12.382812 -87.257812 13.421875 -92.144531 14.546875 -97.25 C 15.679688 -102.351562 16.878906 -107.140625 18.140625 -111.609375 C 19.398438 -116.085938 20.691406 -119.710938 22.015625 -122.484375 C 23.335938 -125.265625 24.628906 -126.65625 25.890625 -126.65625 C 27.660156 -126.65625 28.640625 -126.023438 28.828125 -124.765625 C 29.015625 -123.503906 28.851562 -122.019531 28.34375 -120.3125 C 27.84375 -118.613281 27.40625 -117.132812 27.03125 -115.875 C 25.007812 -108.6875 23.367188 -102.160156 22.109375 -96.296875 C 20.847656 -90.441406 19.679688 -84.519531 18.609375 -78.53125 C 17.546875 -72.550781 16.445312 -65.71875 15.3125 -58.03125 C 14.300781 -51.101562 13.351562 -43.035156 12.46875 -33.828125 C 11.59375 -24.628906 10.867188 -14.957031 10.296875 -4.8125 C 9.734375 5.320312 9.578125 15.175781 9.828125 24.75 C 10.078125 34.332031 10.832031 42.96875 12.09375 50.65625 L 13.984375 59.921875 C 14.992188 59.671875 15.625 59.257812 15.875 58.6875 C 16.125 58.125 16.503906 57.335938 17.015625 56.328125 L 21.546875 42.71875 C 24.441406 32.382812 27.273438 21.671875 30.046875 10.578125 C 32.828125 -0.503906 35.882812 -11.367188 39.21875 -22.015625 C 42.5625 -32.671875 46.4375 -42.535156 50.84375 -51.609375 C 52.101562 -54.003906 53.582031 -56.742188 55.28125 -59.828125 C 56.988281 -62.910156 58.851562 -65.082031 60.875 -66.34375 C 62 -67.101562 63.257812 -67.484375 64.65625 -67.484375 C 66.789062 -67.484375 68.238281 -66.601562 69 -64.84375 C 70.007812 -63.070312 70.578125 -59.851562 70.703125 -55.1875 C 70.828125 -50.53125 70.695312 -45.300781 70.3125 -39.5 C 69.9375 -33.707031 69.5625 -28.101562 69.1875 -22.6875 C 68.8125 -17.269531 68.625 -12.921875 68.625 -9.640625 C 68.625 -5.859375 68.78125 -3.019531 69.09375 -1.125 C 69.40625 0.757812 69.5625 2.707031 69.5625 4.71875 Z M 69.5625 4.71875 "/></g></g></g><g fill="#ff914d" fill-opacity="1"><g transform="translate(167.60269, 194.786567)"><g><path d="M 0 -19.09375 C 0 -21.738281 0.628906 -25.015625 1.890625 -28.921875 C 3.148438 -32.828125 4.910156 -36.703125 7.171875 -40.546875 C 9.441406 -44.390625 12.054688 -47.570312 15.015625 -50.09375 C 17.984375 -52.613281 21.109375 -53.875 24.390625 -53.875 C 27.410156 -53.875 29.863281 -52.988281 31.75 -51.21875 C 33.644531 -49.457031 34.78125 -47.660156 35.15625 -45.828125 C 35.539062 -44.003906 34.910156 -43.09375 33.265625 -43.09375 C 32.003906 -43.09375 30.710938 -43.816406 29.390625 -45.265625 C 28.066406 -46.722656 26.523438 -47.453125 24.765625 -47.453125 C 23.378906 -47.453125 21.707031 -46.628906 19.75 -44.984375 C 17.800781 -43.347656 15.441406 -40.132812 12.671875 -35.34375 C 11.410156 -33.332031 10.242188 -30.71875 9.171875 -27.5 C 8.097656 -24.289062 7.5625 -21.109375 7.5625 -17.953125 C 7.8125 -18.210938 7.90625 -18.304688 7.84375 -18.234375 C 7.78125 -18.171875 8 -18.394531 8.5 -18.90625 L 10.015625 -21.171875 C 11.023438 -22.679688 12.191406 -24.632812 13.515625 -27.03125 C 14.835938 -29.425781 16.191406 -31.851562 17.578125 -34.3125 C 18.960938 -36.769531 20.222656 -38.847656 21.359375 -40.546875 C 22.492188 -42.242188 23.375 -43.09375 24 -43.09375 C 26.269531 -43.09375 27.59375 -42.273438 27.96875 -40.640625 C 28.351562 -39.003906 28.515625 -36.988281 28.453125 -34.59375 C 28.390625 -32.195312 28.609375 -29.800781 29.109375 -27.40625 C 29.867188 -24.007812 31.035156 -21.519531 32.609375 -19.9375 C 34.179688 -18.363281 35.976562 -17.578125 38 -17.578125 C 41.519531 -17.578125 45.425781 -19.71875 49.71875 -24 C 51.476562 -25.644531 52.734375 -27 53.484375 -28.0625 C 54.242188 -29.132812 55.253906 -30.363281 56.515625 -31.75 C 57.398438 -33.007812 58.535156 -33.640625 59.921875 -33.640625 C 61.304688 -33.640625 61.90625 -32.472656 61.71875 -30.140625 C 61.53125 -27.816406 59.039062 -24.320312 54.25 -19.65625 L 48.578125 -15.125 C 44.921875 -12.601562 41.394531 -11.34375 38 -11.34375 C 34.84375 -11.34375 32.097656 -12.285156 29.765625 -14.171875 C 27.441406 -16.066406 25.648438 -18.398438 24.390625 -21.171875 C 23.128906 -23.941406 22.5 -26.648438 22.5 -29.296875 C 21.613281 -28.671875 20.601562 -27.285156 19.46875 -25.140625 C 18.332031 -22.992188 17.101562 -20.691406 15.78125 -18.234375 C 14.457031 -15.785156 13.101562 -13.644531 11.71875 -11.8125 C 10.332031 -9.988281 8.945312 -9.078125 7.5625 -9.078125 C 4.03125 -9.078125 1.882812 -9.894531 1.125 -11.53125 C 0.375 -13.164062 0 -15.6875 0 -19.09375 Z M 0 -19.09375 "/></g></g></g><g fill="#ff914d" fill-opacity="1"><g transform="translate(222.422885, 194.786567)"><g><path d="M -1.140625 -15.6875 L 0 -37.046875 C 0.125 -38.429688 0.25 -40.097656 0.375 -42.046875 C 0.5 -44.003906 0.625 -45.675781 0.75 -47.0625 C 1.007812 -53.363281 1.800781 -59.601562 3.125 -65.78125 C 4.445312 -71.957031 5.863281 -78.070312 7.375 -84.125 C 8.257812 -86.644531 8.953125 -88.3125 9.453125 -89.125 C 9.953125 -89.945312 10.644531 -90.359375 11.53125 -90.359375 C 11.90625 -90.359375 12.34375 -90.328125 12.84375 -90.265625 C 13.351562 -90.203125 13.925781 -90.109375 14.5625 -89.984375 C 15.1875 -87.078125 15.054688 -83.640625 14.171875 -79.671875 C 13.296875 -75.703125 12.601562 -72.082031 12.09375 -68.8125 C 10.707031 -60.113281 9.570312 -50.535156 8.6875 -40.078125 C 7.8125 -29.617188 7.375 -19.660156 7.375 -10.203125 L 7.9375 10.96875 L 9.453125 7.375 C 11.210938 2.332031 12.691406 -1.914062 13.890625 -5.375 C 15.085938 -8.84375 16.472656 -12.28125 18.046875 -15.6875 C 19.628906 -19.09375 21.742188 -23.253906 24.390625 -28.171875 C 25.773438 -30.691406 27.128906 -32.832031 28.453125 -34.59375 C 29.773438 -36.351562 31.820312 -37.234375 34.59375 -37.234375 C 35.976562 -37.234375 36.953125 -36.222656 37.515625 -34.203125 C 38.085938 -32.191406 38.4375 -29.988281 38.5625 -27.59375 C 38.6875 -25.195312 38.75 -23.4375 38.75 -22.3125 C 38.75 -18.78125 38.84375 -15.785156 39.03125 -13.328125 C 39.21875 -10.867188 39.941406 -8.441406 41.203125 -6.046875 C 44.109375 -6.679688 46.566406 -8.539062 48.578125 -11.625 C 50.597656 -14.707031 52.425781 -17.382812 54.0625 -19.65625 C 54.945312 -21.039062 55.765625 -22.425781 56.515625 -23.8125 C 57.273438 -25.195312 58.03125 -26.648438 58.78125 -28.171875 C 59.914062 -30.179688 60.828125 -31.5625 61.515625 -32.3125 C 62.210938 -33.070312 62.941406 -33.453125 63.703125 -33.453125 C 64.078125 -33.453125 64.769531 -33.328125 65.78125 -33.078125 C 66.414062 -30.804688 66.289062 -28.976562 65.40625 -27.59375 C 64.519531 -26.207031 63.570312 -24.570312 62.5625 -22.6875 C 61.6875 -21.039062 60.488281 -18.925781 58.96875 -16.34375 C 57.457031 -13.757812 55.753906 -11.238281 53.859375 -8.78125 C 51.972656 -6.332031 49.957031 -4.253906 47.8125 -2.546875 C 45.675781 -0.847656 43.472656 0 41.203125 0 C 37.046875 0 34.335938 -3.71875 33.078125 -11.15625 C 32.703125 -13.289062 32.453125 -16.15625 32.328125 -19.75 C 32.203125 -23.34375 32.140625 -26.460938 32.140625 -29.109375 C 31.253906 -28.484375 30.179688 -27.035156 28.921875 -24.765625 C 27.660156 -22.492188 26.398438 -19.941406 25.140625 -17.109375 C 23.878906 -14.273438 22.710938 -11.535156 21.640625 -8.890625 C 20.566406 -6.242188 19.71875 -4.222656 19.09375 -2.828125 C 17.582031 1.078125 16.351562 4.984375 15.40625 8.890625 C 14.457031 12.796875 13.414062 16.507812 12.28125 20.03125 C 11.65625 22.050781 10.929688 23.34375 10.109375 23.90625 C 9.296875 24.476562 8.003906 24.765625 6.234375 24.765625 C 4.847656 24.765625 3.710938 23.566406 2.828125 21.171875 C 1.953125 18.773438 1.226562 15.78125 0.65625 12.1875 C 0.09375 8.601562 -0.3125 4.890625 -0.5625 1.046875 C -0.8125 -2.796875 -0.96875 -6.257812 -1.03125 -9.34375 C -1.101562 -12.4375 -1.140625 -14.550781 -1.140625 -15.6875 Z M -1.140625 -15.6875 "/></g></g></g><g fill="#ff914d" fill-opacity="1"><g transform="translate(280.078582, 194.786567)"><g><path d="M 15.6875 0.75 C 13.164062 0.75 10.925781 -0.0664062 8.96875 -1.703125 C 7.019531 -3.335938 5.539062 -5.039062 4.53125 -6.8125 C 2.269531 -11.09375 0.976562 -16.160156 0.65625 -22.015625 C 0.34375 -27.878906 0.691406 -33.207031 1.703125 -38 C 1.953125 -39.382812 2.296875 -41.050781 2.734375 -43 C 3.179688 -44.957031 3.84375 -46.691406 4.71875 -48.203125 C 5.601562 -49.710938 6.675781 -50.46875 7.9375 -50.46875 C 10.832031 -50.46875 12.25 -49.488281 12.1875 -47.53125 C 12.125 -45.582031 11.585938 -42.5625 10.578125 -38.46875 C 9.578125 -34.375 9.078125 -29.113281 9.078125 -22.6875 C 9.078125 -20.789062 9.328125 -18.519531 9.828125 -15.875 C 10.328125 -13.226562 11.113281 -10.894531 12.1875 -8.875 C 13.257812 -6.863281 14.613281 -5.859375 16.25 -5.859375 C 18.269531 -5.859375 20.570312 -6.738281 23.15625 -8.5 C 25.738281 -10.269531 28.128906 -12.253906 30.328125 -14.453125 C 32.535156 -16.660156 34.082031 -18.332031 34.96875 -19.46875 C 35.21875 -19.71875 35.910156 -20.566406 37.046875 -22.015625 C 38.179688 -23.472656 39.535156 -25.113281 41.109375 -26.9375 C 42.691406 -28.757812 44.238281 -30.363281 45.75 -31.75 C 47.257812 -33.144531 48.457031 -33.84375 49.34375 -33.84375 C 50.21875 -33.84375 50.65625 -33.082031 50.65625 -31.5625 C 50.65625 -30.6875 50.054688 -29.332031 48.859375 -27.5 C 47.660156 -25.675781 46.242188 -23.753906 44.609375 -21.734375 C 42.972656 -19.722656 41.363281 -17.832031 39.78125 -16.0625 C 38.207031 -14.300781 37.046875 -13.039062 36.296875 -12.28125 C 34.785156 -10.769531 32.988281 -8.972656 30.90625 -6.890625 C 28.820312 -4.816406 26.519531 -3.023438 24 -1.515625 C 21.476562 -0.00390625 18.707031 0.75 15.6875 0.75 Z M 9.640625 -74.296875 C 9.640625 -76.429688 10.207031 -78.285156 11.34375 -79.859375 C 12.476562 -81.441406 13.738281 -82.234375 15.125 -82.234375 C 16.632812 -82.234375 17.894531 -81.285156 18.90625 -79.390625 C 20.664062 -75.859375 20.882812 -73.113281 19.5625 -71.15625 C 18.238281 -69.207031 16.632812 -68.234375 14.75 -68.234375 C 13.488281 -68.234375 12.320312 -68.738281 11.25 -69.75 C 10.175781 -70.757812 9.640625 -72.273438 9.640625 -74.296875 Z M 9.640625 -74.296875 "/></g></g></g><g fill="#ff914d" fill-opacity="1"><g transform="translate(323.178585, 194.786567)"><g><path d="M 2.640625 -0.75 C 1.378906 -0.75 0.625 -1.535156 0.375 -3.109375 C 0.125 -4.691406 0.0625 -6.363281 0.1875 -8.125 C 0.3125 -9.894531 0.375 -10.96875 0.375 -11.34375 C 0.25 -13.613281 0.21875 -15.910156 0.28125 -18.234375 C 0.34375 -20.566406 0.3125 -22.929688 0.1875 -25.328125 C 0.1875 -26.210938 0.21875 -27.882812 0.28125 -30.34375 C 0.34375 -32.800781 0.53125 -35.414062 0.84375 -38.1875 C 1.164062 -40.957031 1.640625 -43.347656 2.265625 -45.359375 C 2.898438 -47.378906 3.71875 -48.390625 4.71875 -48.390625 C 7.238281 -48.390625 8.53125 -47.570312 8.59375 -45.9375 C 8.664062 -44.300781 8.570312 -42.15625 8.3125 -39.5 C 8.1875 -38.625 8.125 -37.648438 8.125 -36.578125 C 8.125 -35.503906 8.125 -34.460938 8.125 -33.453125 C 8.125 -32.191406 8.0625 -31.375 7.9375 -31 C 7.8125 -30.625 7.75 -29.804688 7.75 -28.546875 C 9.132812 -29.554688 10.394531 -30.722656 11.53125 -32.046875 C 12.664062 -33.367188 14.679688 -34.03125 17.578125 -34.03125 C 18.460938 -34.03125 19.628906 -34.0625 21.078125 -34.125 C 22.523438 -34.1875 24.066406 -34.21875 25.703125 -34.21875 C 28.472656 -34.21875 31.054688 -34.054688 33.453125 -33.734375 C 35.847656 -33.421875 37.046875 -32.632812 37.046875 -31.375 C 37.046875 -30.113281 36.382812 -29.296875 35.0625 -28.921875 C 33.738281 -28.546875 32.132812 -28.359375 30.25 -28.359375 C 28.988281 -28.359375 27.695312 -28.390625 26.375 -28.453125 C 25.050781 -28.515625 23.882812 -28.546875 22.875 -28.546875 C 19.34375 -28.546875 16.976562 -28.351562 15.78125 -27.96875 C 14.582031 -27.59375 13.226562 -26.144531 11.71875 -23.625 C 10.832031 -21.988281 9.976562 -20.222656 9.15625 -18.328125 C 8.34375 -16.441406 7.75 -14.363281 7.375 -12.09375 C 7 -10.457031 6.84375 -8.753906 6.90625 -6.984375 C 6.96875 -5.222656 6.773438 -3.742188 6.328125 -2.546875 C 5.890625 -1.347656 4.660156 -0.75 2.640625 -0.75 Z M 2.640625 -0.75 "/></g></g></g></svg>